<?xml version="1.0" encoding="UTF-8" standalone="no"?>
<!-- Created with Inkscape (http://www.inkscape.org/) -->
<svg width="360mm" height="400mm" viewBox="0 0 360 400" version="1.1" id="svg5" xml:space="preserve" inkscape:version="1.2.2 (732a01da63, 2022-12-09)" sodipodi:docname="numba-mpi.svg" xmlns:inkscape="http://www.inkscape.org/namespaces/inkscape" xmlns:sodipodi="http://sodipodi.sourceforge.net/DTD/sodipodi-0.dtd" xmlns="http://www.w3.org/2000/svg" xmlns:svg="http://www.w3.org/2000/svg"><sodipodi:namedview id="namedview7" pagecolor="#ffffff" bordercolor="#000000" borderopacity="0.25" inkscape:showpageshadow="2" inkscape:pageopacity="0.0" inkscape:pagecheckerboard="0" inkscape:deskcolor="#d1d1d1" inkscape:document-units="mm" showgrid="false" inkscape:zoom="0.52724989" inkscape:cx="591.74977" inkscape:cy="716.92761" inkscape:window-width="1920" inkscape:window-height="1017" inkscape:window-x="1912" inkscape:window-y="-8" inkscape:window-maximized="1" inkscape:current-layer="layer1"/><defs id="defs2"/><g inkscape:label="Layer 1" inkscape:groupmode="layer" id="layer1"><g id="g42" transform="matrix(0.26458333,0,0,0.26458333,-16.823252,-10.081316)"><g id="g13">
	<path class="st0" d="m 521.04833,1205.7821 c 0,0 26.86062,-14.0277 111.40402,-76.725 -58.627,-26.4947 -68.11687,-32.1438 -116.55452,-70.2131 35.4291,28.482 -238.015,203.9021 -238.015,203.9021 h 116.5883 c -20.1337,47.4701 -116.5883,185.0602 -116.5883,185.0602 l 350.8575,-237.2042 c -36.8338,-5.1122 -107.692,-4.82 -107.692,-4.82 z" id="path11" sodipodi:nodetypes="cccccccc"/>
</g><rect x="22.5" y="22.5" class="st1" width="455" height="455" id="rect15"/><path class="st2" d="M 301.6,64.3" id="path30"/></g></g><g inkscape:groupmode="layer" id="layer3" inkscape:label="Head"><g id="g5359" transform="matrix(0.26458333,0,0,0.26458333,-16.823252,-10.081316)"><g id="g5353">
	<path class="st0" d="m 993.78039,650.28585 c 0,0 106.94041,-121.84706 23.68871,-230.09389 C 920.94533,294.62563 659.8604,557.11957 630.3,502.99616 600.7396,448.87274 860.91963,322.93634 890.17843,301.28697 c 3.1672,-2.33147 4.0721,-6.82787 3.1672,-11.99042 l 31.2194,-3.9968 -19.4556,-10.82469 4.977,-21.48283 -22.6228,19.48443 c -8.4458,-16.81989 -22.9243,-34.97205 -31.2194,-41.30033 -29.4095,-21.48283 -83.2517,-16.32029 -161.5264,26.97844 -78.2747,43.29874 -250.37683,174.56421 -157.47273,325.94325 83.2517,135.05874 312.96643,-93.29582 352.93333,-55.82576 -70.07917,13.50771 -51.71441,16.26464 -51.71441,16.26464 l 6.4498,34.1394 c 8.99391,19.98401 42.86268,47.88755 42.86268,47.88755 l 62.13105,34.9075 c 19.40928,3.6545 43.87284,-11.1855 43.87284,-11.1855 z M 803.00543,247.33009 c 12.0654,-0.9992 22.4719,9.32588 23.3768,22.48203 0.9049,13.32269 -8.4458,24.81351 -20.3605,25.81271 -12.0654,0.9992 -22.4719,-9.32588 -23.3768,-22.48203 -1.0557,-13.32269 8.295,-24.81351 20.3605,-25.81271 z" id="path5351" sodipodi:nodetypes="ccscccccccscccccccscccs"/>
</g><rect x="22.5" y="22.5" class="st1" width="455" height="455" id="rect5355"/><path class="st2" d="M 301.6,64.3" id="path5357"/></g></g><g inkscape:groupmode="layer" id="layer4" inkscape:label="Tail"/><g inkscape:groupmode="layer" id="layer2" inkscape:label="Globe"><g id="g580" transform="matrix(3.4315837,0,0,3.4315837,-334.98724,-288.50336)"><path d="m 24.835,77.304 c 0.123,0 0,0.122 0,0" fill="none" stroke="#000000" stroke-width="1.124" stroke-miterlimit="2.613" id="path518" sodipodi:nodetypes="cc"/><path d="m 179.4235,142.14118 -0.35557,2.01946 c -1.219,-5.241 -5.49543,-12.13546 -9.88343,-15.06046 l -0.73525,-1.68123 c 4.632,2.925 9.75525,9.23723 10.97425,14.72223 z" fill-rule="evenodd" clip-rule="evenodd" fill="#f9dc30" stroke="#f9dc30" stroke-width="0.459" stroke-miterlimit="2.613" id="path520" style="fill:#00a3e0;fill-opacity:1;stroke:#00a3e0;stroke-opacity:1" sodipodi:nodetypes="ccccc"/><path fill="none" stroke="#000000" stroke-width="1.124" stroke-miterlimit="2.613" d="m 25.689,116.184 v 0.121" id="path522"/><path d="m 155.9005,137.50918 5.485,-7.922 0.853,0.609 -5.485,7.922 -0.122,-0.122 z m 11.213,-16.209 0.975,0.731 -2.194,3.047 -0.975,-0.61 z m -24.985,35.711 11.822,-16.82 0.488,0.365 0.366,0.366 -11.701,16.698 c -0.244,-0.123 -0.365,-0.244 -0.365,-0.244 z m -5.851,8.287 3.901,-5.485 0.365,0.244 0.61,0.366 -3.9,5.605 z" fill-rule="evenodd" clip-rule="evenodd" fill="#4cb0e8" stroke="#4cb0e8" stroke-width="0.765" stroke-miterlimit="2.613" id="path524" style="fill:#00a3e0;fill-opacity:1;stroke:#00a3e0;stroke-opacity:1" sodipodi:nodetypes="cccccccccccccccccccccccc"/><path d="m 141.5195,139.94718 c 5.362,-7.556 12.01739,-11.12719 17.01539,-12.95619 l 0.77861,0.89019 c -4.875,1.829 -11.7,5.363 -16.819,12.675 -0.122,0.122 -0.3991,0.29571 -0.3991,0.53971 l -0.6979,-0.90471 c -0.001,-0.122 0.122,-0.122 0.122,-0.244 z" fill-rule="evenodd" clip-rule="evenodd" fill="#6eac51" stroke="#6eac51" stroke-width="0.765" stroke-miterlimit="2.613" id="path526" style="fill:#00a3e0;fill-opacity:1;stroke:#00a3e0;stroke-opacity:1" sodipodi:nodetypes="ccccccc"/><path d="m 178.6915,144.21218 0.853,0.609 c -2.194,3.17 -7.922,3.049 -14.748,0.244 l 0.366,-1.096 c 6.338,2.68 11.579,2.924 13.529,0.243 z" fill-rule="evenodd" clip-rule="evenodd" fill="#ffffff" id="path528" style="fill:#00a3e0;fill-opacity:1" sodipodi:nodetypes="ccccc"/><path d="m 168.6975,132.14718 0.975,-0.609 c 2.804,4.875 3.657,9.019 3.047,13.407 -0.366,-0.123 -0.731,-0.123 -1.097,-0.123 0.487,-4.144 -0.244,-8.166 -2.925,-12.675 z" fill-rule="evenodd" clip-rule="evenodd" fill="#b4282e" stroke="#b4282e" stroke-width="0.459" stroke-miterlimit="2.613" id="path530" style="fill:#00a3e0;fill-opacity:1;stroke:#00a3e0;stroke-opacity:1" sodipodi:nodetypes="ccccc"/><path d="m 155.1695,139.70318 c -2.194,-1.462 -4.266,-3.169 -5.972,-4.753 0.366,-0.244 0.609,-0.487 0.853,-0.731 1.80544,1.66834 3.71929,3.21539 5.729,4.631 2.072,1.462 4.266,2.682 6.337,3.778 -0.122,0.365 -0.244,0.731 -0.366,0.974 -2.194,-0.974 -4.388,-2.315 -6.581,-3.899 z m -13.163,-21.207 0.975,0.609 c -1.95,2.681 0.122,7.678 4.753,12.675 -0.365,0.244 -0.609,0.487 -0.853,0.731 -4.997,-5.483 -7.069,-10.968 -4.875,-14.015 z m -8.531,14.748 c -1.707,-3.534 -2.072,-6.703 -0.731,-8.897 l 0.975,0.609 c -1.097,1.707 -0.731,4.266 0.609,7.191 -0.244,0.365 -0.488,0.609 -0.731,0.975 -0.001,0 -0.001,0.122 -0.122,0.122 z m 14.137,14.015 -0.244,0.367 -0.366,0.486 c -4.997,-3.656 -9.019,-7.8 -11.578,-11.578 l 0.731,-1.097 c 2.56,3.9 6.46,8.044 11.457,11.822 z" fill-rule="evenodd" clip-rule="evenodd" fill="#ffffff" id="path532" style="fill:#00a3e0;fill-opacity:1" sodipodi:nodetypes="cccccccccccccccccccccccc"/><path d="m 140.1785,143.97018 c -5.606,8.775 -7.45359,16.13053 -5.50259,19.91053 l -0.975,-0.59974 c -2.194,-4.143 -0.22541,-10.90279 5.74659,-20.16479 0.243,0.243 0.487,0.609 0.731,0.854 z" fill-rule="evenodd" clip-rule="evenodd" fill="#6eac51" stroke="#6eac51" stroke-width="0.765" stroke-miterlimit="2.613" id="path534" style="fill:#00a3e0;fill-opacity:1;stroke:#00a3e0;stroke-opacity:1" sodipodi:nodetypes="ccccc"/><path d="m 126.6495,133.36518 1.097,0.366 c -1.706,3.9 0.366,10.725 6.094,17.307 -0.122,0.365 -0.365,0.73 -0.487,1.098 -1.95,-2.072 -3.534,-4.389 -4.753,-6.705 -2.56,-4.631 -3.169,-9.141 -1.951,-12.066 z" fill-rule="evenodd" clip-rule="evenodd" fill="#ffffff" id="path536" style="fill:#00a3e0;fill-opacity:1" sodipodi:nodetypes="cccccc"/><path d="m 131.12231,159.8763 -0.45798,0.53971 c -1.34,-2.439 -2.67383,-7.42883 -1.94283,-12.54583 0.244,0.486 0.609,0.975 0.975,1.461 -0.487,4.266 0.32881,8.47312 1.42581,10.54512 z m 3.32719,-25.90112 c 2.072,-3.047 4.388,-5.363 7.069,-7.191 0.122,0.366 0.365,0.731 0.487,0.975 -2.438,1.706 -4.753,4.022 -6.703,6.825 -2.13395,3.02517 -3.70321,6.41133 -4.632,9.995 -0.365,-0.488 -0.609,-0.977 -0.853,-1.463 0.976,-3.047 2.439,-6.094 4.632,-9.141 z" fill-rule="evenodd" clip-rule="evenodd" fill="#f9dc30" stroke="#f9dc30" stroke-width="0.459" stroke-miterlimit="2.613" id="path538" style="fill:#00a3e0;fill-opacity:1;stroke:#00a3e0;stroke-opacity:1" sodipodi:nodetypes="cccccccccccc"/><path d="m 169.4295,156.76618 c 3.047,0.121 6.00102,-1.10842 7.22002,-2.93642 l 0.45798,1.35242 c -1.584,2.193 -4.631,2.924 -8.531,2.68 0.244,-0.365 0.487,-0.609 0.609,-0.852 z m -4.51,0.366 c -4.51,-1.098 -9.872,-3.535 -15.235,-7.068 l 0.244,-0.244 0.488,-0.609 c 5.363,3.535 10.725,5.85 15.235,6.947 -0.122,0.121 -0.122,0.121 -0.122,0.244 -0.245,0.241 -0.366,0.486 -0.61,0.73 z" fill-rule="evenodd" clip-rule="evenodd" fill="#ffffff" id="path540" style="fill:#00a3e0;fill-opacity:1" sodipodi:nodetypes="ccccccccccccc"/><path d="m 158.8255,151.89118 c 3.9,-5.484 5.85,-12.311 5.85,-20.11 h 1.097 c 0,8.043 -2.072,14.991 -6.094,20.841 0,0.123 -0.122,0.123 -0.244,0.244 -0.244,-0.121 -0.609,-0.244 -0.975,-0.488 0.15117,-0.13821 0.27529,-0.30336 0.366,-0.487 z m -20.50502,14.502 c 3.535,0.977 11.36402,-3.047 18.06802,-11.211 0.243,0.121 0.609,0.365 0.975,0.486 -6.459,7.922 -14.05319,12.62738 -18.56219,11.40838 z" fill-rule="evenodd" clip-rule="evenodd" fill="#5a6baf" stroke="#5a6baf" stroke-width="0.382" stroke-miterlimit="2.613" id="path542" style="fill:#00a3e0;fill-opacity:1;stroke:#00a3e0;stroke-opacity:1" sodipodi:nodetypes="cccccccccccc"/><path d="m 141.2745,159.20418 c -1.95,-1.463 -3.778,-2.926 -5.362,-4.389 0.122,-0.365 0.244,-0.73 0.365,-1.219 1.707,1.586 3.535,3.17 5.606,4.633 2.072,1.463 4.022,2.559 5.972,3.656 -0.244,0.244 -0.609,0.486 -0.975,0.73 -1.827,-0.974 -3.777,-2.192 -5.606,-3.411 z m 28.276,4.266 0.853,0.73 c -3.413,3.9 -11.456,3.656 -20.109,0 0.365,-0.244 0.731,-0.486 0.975,-0.73 8.531,3.412 15.6,3.046 18.281,0 z" fill-rule="evenodd" clip-rule="evenodd" fill="#ffffff" id="path544" style="fill:#00a3e0;fill-opacity:1" sodipodi:nodetypes="cccccccccccc"/><path d="m 166.8695,156.40118 c 1.95,-2.805 3.291,-5.607 4.144,-8.41 0.366,0.121 0.731,0.121 1.097,0.121 -0.853,3.047 -2.315,5.973 -4.265,8.898 -2.316,3.168 -5.13351,5.93581 -7.93751,8.00581 -0.487,-0.121 -0.81989,-0.1386 -1.42889,-0.1386 2.924,-2.072 5.9534,-5.06421 8.3904,-8.47621 z m -5.56555,-33.57996 -2.26347,-0.47265 c -3.9,-2.682 -11.41163,-4.32079 -15.19063,-3.95579 l 1.32565,-0.8716 c 3.9,-0.487 12.10645,2.61904 16.12845,5.30004 z m -6.36662,43.61856 c 0.46941,0.2761 1.10613,0.3795 1.47213,0.3795 -2.08034,1.03808 -9.35018,2.54101 -11.44019,2.63409 -0.487,-0.121 -0.7682,-0.44881 -1.79081,-0.70732 6.54081,-0.72763 10.0326,-1.53801 11.75887,-2.30627 z" fill-rule="evenodd" clip-rule="evenodd" fill="#b4282e" stroke="#b4282e" stroke-width="0.459" stroke-miterlimit="2.613" id="path546" style="fill:#00a3e0;fill-opacity:1;stroke:#00a3e0;stroke-opacity:1" sodipodi:nodetypes="ccccccccccccccccc"/><path d="m 152.1225,116.30218 c -15.113,0 -27.545,12.31 -27.545,27.423 0,15.113 12.432,27.301 27.545,27.301 15.234,0 27.544,-12.188 27.544,-27.301 0,-15.113 -12.31,-27.423 -27.544,-27.423 z m 0,53.627 c -14.504,0 -26.326,-11.699 -26.326,-26.203 0,-14.504 11.822,-26.204 26.326,-26.204 14.625,0 26.447,11.7 26.447,26.204 0,14.504 -11.822,26.203 -26.447,26.203 z" fill-rule="evenodd" clip-rule="evenodd" fill="#ffffff" id="path548" style="fill:#00a3e0;fill-opacity:1" sodipodi:nodetypes="ssssssssss"/><path d="m 157.48859,123.24918 -0.0703,1.0453 c -5.241,-0.853 -8.95279,0.0517 -12.48679,1.7577 -0.27156,-0.27678 -0.4794,-0.60953 -0.609,-0.975 3.9,-1.828 7.68209,-2.681 13.16609,-1.828 z" fill-rule="evenodd" clip-rule="evenodd" fill="#f9dc30" stroke="#f9dc30" stroke-width="0.459" stroke-miterlimit="2.613" id="path550" style="fill:#00a3e0;fill-opacity:1;stroke:#00a3e0;stroke-opacity:1" sodipodi:nodetypes="ccccc"/><path d="m 161.8725,129.83118 c -3.291,-2.438 -5.241,-5.363 -4.266,-6.825 0.975,-1.341 4.509,-0.609 7.8,1.706 3.291,2.316 5.241,5.363 4.266,6.704 -0.975,1.462 -4.388,0.731 -7.8,-1.585 z" fill="none" stroke="#ffffff" stroke-width="1.124" stroke-miterlimit="2.613" id="path552" style="stroke:#00a3e0;stroke-opacity:1" sodipodi:nodetypes="ccccc"/></g></g><style type="text/css" id="style9">
	.st0{fill:#00A3E0;}
	.st1{fill:none;}
	.st2{fill:url(#SVGID_1_);}
</style></svg>